name C:/MyDriveSym/Projects/mobilecap/Data\Session20210825_0002\mocap\ForceDataProcessed\walkingTS3_forces.mot
datacolumns 19
datarows 17
range 0.42450000 0.43250000
endheader 
time	R_ground_force_vx	R_ground_force_vy	R_ground_force_vz	R_ground_force_px	R_ground_force_py	R_ground_force_pz	R_ground_torque_x	R_ground_torque_y	R_ground_torque_z	L_ground_force_vx	L_ground_force_vy	L_ground_force_vz	L_ground_force_px	L_ground_force_py	L_ground_force_pz	L_ground_torque_x	L_ground_torque_y	L_ground_torque_z	
          0.42450000	         15.30927500	        573.33619900	        -24.21830600	          0.19871100	          0.00600000	         -0.11934800	          0.00000000	         -3.56122100	          0.00000000	          0.00000000	          0.00000000	          0.00000000	          0.64343300	          0.00000000	         -0.27129500	          0.00000000	          0.00000000	          0.00000000	
          0.42500000	         15.42952300	        573.57629000	        -24.26578100	          0.19884400	          0.00600000	         -0.11933600	          0.00000000	         -3.56287500	          0.00000000	          0.00000000	          0.00000000	          0.00000000	          0.64343300	          0.00000000	         -0.27129500	          0.00000000	          0.00000000	          0.00000000	
          0.42550000	         15.54924600	        573.81676800	        -24.31374800	          0.19897900	          0.00600000	         -0.11932300	          0.00000000	         -3.56445900	          0.00000000	          0.00000000	          0.00000000	          0.00000000	          0.64343300	          0.00000000	         -0.27129500	          0.00000000	          0.00000000	          0.00000000	
          0.42600000	         15.66844700	        574.05762200	        -24.36220700	          0.19911500	          0.00600000	         -0.11931100	          0.00000000	         -3.56597200	          0.00000000	          0.00000000	          0.00000000	          0.00000000	          0.64343300	          0.00000000	         -0.27129500	          0.00000000	          0.00000000	          0.00000000	
          0.42650000	         15.78712800	        574.29884100	        -24.41115400	          0.19925100	          0.00600000	         -0.11929700	          0.00000000	         -3.56741400	          0.00000000	          0.00000000	          0.00000000	          0.00000000	          0.64343300	          0.00000000	         -0.27129500	          0.00000000	          0.00000000	          0.00000000	
          0.42700000	         15.90529100	        574.54041400	        -24.46058700	          0.19938800	          0.00600000	         -0.11928400	          0.00000000	         -3.56878400	          0.00000000	          0.00000000	          0.00000000	          0.00000000	          0.64343300	          0.00000000	         -0.27129500	          0.00000000	          0.00000000	          0.00000000	
          0.42750000	         16.02293900	        574.78232900	        -24.51050300	          0.19952500	          0.00600000	         -0.11927000	          0.00000000	         -3.57008400	          0.00000000	          0.00000000	          0.00000000	          0.00000000	          0.64343300	          0.00000000	         -0.27129500	          0.00000000	          0.00000000	          0.00000000	
          0.42800000	         16.14007300	        575.02457500	        -24.56090000	          0.19966400	          0.00600000	         -0.11925500	          0.00000000	         -3.57131300	          0.00000000	          0.00000000	          0.00000000	          0.00000000	          0.64343300	          0.00000000	         -0.27129500	          0.00000000	          0.00000000	          0.00000000	
          0.42850000	         16.25669700	        575.26714300	        -24.61177500	          0.19980300	          0.00600000	         -0.11924000	          0.00000000	         -3.57247100	          0.00000000	          0.00000000	          0.00000000	          0.00000000	          0.64343300	          0.00000000	         -0.27129500	          0.00000000	          0.00000000	          0.00000000	
          0.42900000	         16.37281200	        575.51002000	        -24.66312500	          0.19994300	          0.00600000	         -0.11922400	          0.00000000	         -3.57355800	          0.00000000	          0.00000000	          0.00000000	          0.00000000	          0.64343300	          0.00000000	         -0.27129500	          0.00000000	          0.00000000	          0.00000000	
          0.42950000	         16.48842100	        575.75319700	        -24.71494700	          0.20008400	          0.00600000	         -0.11920800	          0.00000000	         -3.57457400	          0.00000000	          0.00000000	          0.00000000	          0.00000000	          0.64343300	          0.00000000	         -0.27129500	          0.00000000	          0.00000000	          0.00000000	
          0.43000000	         16.60352600	        575.99666200	        -24.76723900	          0.20022600	          0.00600000	         -0.11919200	          0.00000000	         -3.57551900	          0.00000000	          0.00000000	          0.00000000	          0.00000000	          0.64343300	          0.00000000	         -0.27129500	          0.00000000	          0.00000000	          0.00000000	
          0.43050000	         16.71813200	        576.24040500	        -24.81999900	          0.20036800	          0.00600000	         -0.11917500	          0.00000000	         -3.57639400	          0.00000000	          0.00000000	          0.00000000	          0.00000000	          0.64343300	          0.00000000	         -0.27129500	          0.00000000	          0.00000000	          0.00000000	
          0.43100000	         16.83223900	        576.48441600	        -24.87322200	          0.20051100	          0.00600000	         -0.11915700	          0.00000000	         -3.57719700	          0.00000000	          0.00000000	          0.00000000	          0.00000000	          0.64343300	          0.00000000	         -0.27129500	          0.00000000	          0.00000000	          0.00000000	
          0.43150000	         16.94585000	        576.72868300	        -24.92690600	          0.20065500	          0.00600000	         -0.11914000	          0.00000000	         -3.57793000	          0.00000000	          0.00000000	          0.00000000	          0.00000000	          0.64343300	          0.00000000	         -0.27129500	          0.00000000	          0.00000000	          0.00000000	
          0.43200000	         17.05897000	        576.97319700	        -24.98104900	          0.20080000	          0.00600000	         -0.11912100	          0.00000000	         -3.57859200	          0.00000000	          0.00000000	          0.00000000	          0.00000000	          0.64343300	          0.00000000	         -0.27129500	          0.00000000	          0.00000000	          0.00000000	
          0.43250000	         17.17159900	        577.21794700	        -25.03564700	          0.20094600	          0.00600000	         -0.11910200	          0.00000000	         -3.57918400	          0.00000000	          0.00000000	          0.00000000	          0.00000000	          0.64343300	          0.00000000	         -0.27129500	          0.00000000	          0.00000000	          0.00000000	
